<svg xmlns="http://www.w3.org/2000/svg" width="41.535" height="35.034" viewBox="0 0 41.535 35.034"><g transform="translate(-609.182 -174.043)"><g transform="translate(608.884 173.343)"><path d="M41.131,11.233A25.453,25.453,0,0,0,21.065,1.2,25.453,25.453,0,0,0,1,11.233" transform="translate(0 0)" fill="none" stroke="#262626" stroke-linecap="round" stroke-width="1" fill-rule="evenodd"/><path d="M35.495,17.226a17.016,17.016,0,0,0-28.895,0m4.013,6.813a11.329,11.329,0,0,1,20.868.21" transform="translate(0.018 0.026)" fill="none" stroke="#262626" stroke-linecap="round" stroke-width="1" fill-rule="evenodd"/><path d="M25.766,30.077A4.887,4.887,0,1,1,20.882,25a4.984,4.984,0,0,1,4.884,5.077" transform="translate(0.049 0.078)" fill="none" stroke="#262626" stroke-width="1" fill-rule="evenodd"/></g></g></svg>