<svg xmlns="http://www.w3.org/2000/svg" width="41.384" height="44.765" viewBox="0 0 41.384 44.765">
  <g id="ico01" transform="translate(-609.86 -168.992)">
    <g id="グループ_15" data-name="グループ 15" transform="translate(610.361 196.461)">
      <line id="線_1" data-name="線 1" x2="4.743" transform="translate(29.243 10.945)" fill="none" stroke="#1e2124" stroke-linecap="round" stroke-linejoin="round" stroke-width="1"/>
      <g id="グループ_14" data-name="グループ 14">
        <path id="パス_1" data-name="パス 1" d="M666.059,233.044l.735-10.7a4.359,4.359,0,0,0-3.581-4.5l-9.026-1.446-4.227,13.7-1.628-8.44a3.251,3.251,0,0,1,.2-1.876L650,216.281" transform="translate(-626.421 -216.281)" fill="none" stroke="#1e2124" stroke-linecap="round" stroke-linejoin="round" stroke-width="1"/>
        <path id="パス_2" data-name="パス 2" d="M627.166,216.281l1.471,3.493a3.246,3.246,0,0,1,.2,1.876l-1.628,8.44-4.227-13.7-9.026,1.446a4.359,4.359,0,0,0-3.581,4.5l.735,10.7" transform="translate(-610.362 -216.281)" fill="none" stroke="#1e2124" stroke-linecap="round" stroke-linejoin="round" stroke-width="1"/>
      </g>
    </g>
    <g id="グループ_16" data-name="グループ 16" transform="translate(619.992 169.492)">
      <path id="パス_3" data-name="パス 3" d="M632.835,183.25a2.788,2.788,0,0,1-5.556.376,23.537,23.537,0,0,1-.2-3.091h-.008a10.571,10.571,0,1,1,21.121,0h0a23.433,23.433,0,0,1-.2,3.091,2.789,2.789,0,0,1-5.556-.376" transform="translate(-627.07 -169.493)" fill="none" stroke="#1e2124" stroke-linecap="round" stroke-linejoin="round" stroke-width="1"/>
    </g>
    <line id="線_2" data-name="線 2" x1="3.133" y2="4.741" transform="translate(622.979 191.83)" fill="none" stroke="#1e2124" stroke-linecap="round" stroke-linejoin="round" stroke-width="1"/>
    <line id="線_3" data-name="線 3" x2="3.133" y2="4.741" transform="translate(634.994 191.83)" fill="none" stroke="#1e2124" stroke-linecap="round" stroke-linejoin="round" stroke-width="1"/>
    <path id="パス_4" data-name="パス 4" d="M629.025,189.661a2.542,2.542,0,0,0,1.5,4.819c1.153,4.687,3.988,8.007,7.31,8.007s6.156-3.319,7.31-8.007a2.593,2.593,0,0,0,.409.041,2.551,2.551,0,0,0,.148-5.1" transform="translate(-7.283 -8.443)" fill="#f2f2f2" stroke="#1e2124" stroke-linecap="round" stroke-linejoin="round" stroke-width="1"/>
    <path id="パス_5" data-name="パス 5" d="M649.994,185.779a11.719,11.719,0,0,1-3.017.391c-4.246,0-7.869-2.229-9.29-5.366" transform="translate(-11.574 -4.791)" fill="none" stroke="#1e2124" stroke-linecap="round" stroke-linejoin="round" stroke-width="1"/>
  </g>
</svg>
