<svg xmlns="http://www.w3.org/2000/svg" width="37.103" height="34.969" viewBox="0 0 37.103 34.969">
  <g id="ico09" transform="translate(-615.348 -176.43)">
    <path id="img-amenities-10" d="M12.577,3.722l-.325,24.409M36.527.5l-.3,24.744m-24,2.784c.729,2.262-1.269,4.93-4.464,5.96s-6.375.03-7.1-2.231,1.27-4.932,4.465-5.96,6.373-.031,7.1,2.231ZM36.03,24.806c.729,2.262-1.27,4.93-4.464,5.959s-6.375.03-7.1-2.231,1.27-4.93,4.464-5.959S35.3,22.544,36.03,24.806ZM12.577,3.722,36.527.5M12.577,9.093,36.162,5.916" transform="translate(615.361 176.492)" fill="none" stroke="#231916" stroke-linecap="round" stroke-linejoin="round" stroke-width="1" fill-rule="evenodd"/>
  </g>
</svg>
