<svg xmlns="http://www.w3.org/2000/svg" width="42.615" height="35.699" viewBox="0 0 42.615 35.699"><g transform="translate(-608.861 -174.029)"><g transform="translate(608.861 174.029)"><path d="M40.19,30.581H2.424A2.424,2.424,0,0,1,0,28.155V2.424A2.427,2.427,0,0,1,2.424,0H40.19a2.427,2.427,0,0,1,2.425,2.424V28.157A2.428,2.428,0,0,1,40.19,30.581ZM2.424,1A1.426,1.426,0,0,0,1,2.424V28.156a1.424,1.424,0,0,0,1.424,1.425H40.19a1.427,1.427,0,0,0,1.425-1.424V2.424A1.426,1.426,0,0,0,40.19,1Z" transform="translate(0)" fill="#231916"/><path d="M24.557,35.618a.5.5,0,0,1-.49-.4L23.048,30.1a.5.5,0,1,1,.981-.2l1.019,5.118a.5.5,0,0,1-.491.6Zm-6.648,0a.5.5,0,0,1-.491-.6L18.437,29.9a.5.5,0,1,1,.981.2L18.4,35.215A.5.5,0,0,1,17.909,35.618Zm18.2-9.434H6.359a2.429,2.429,0,0,1-2.426-2.424V6.66A2.426,2.426,0,0,1,6.359,4.234H36.107A2.429,2.429,0,0,1,38.533,6.66v17.1A2.429,2.429,0,0,1,36.107,26.184ZM6.359,5.234A1.426,1.426,0,0,0,4.933,6.66v17.1a1.428,1.428,0,0,0,1.426,1.424h29.8a1.428,1.428,0,0,0,1.372-1.424V6.66a1.428,1.428,0,0,0-1.426-1.426Z" transform="translate(0.075 0.081)" fill="#231916"/><g transform="translate(13.656 35.199)"><path d="M15.713,1H.409a.5.5,0,1,1,0-1h15.3a.5.5,0,1,1,0,1Z" transform="translate(-0.409 -0.5)" fill="#231916"/></g></g></g></svg>