<svg xmlns="http://www.w3.org/2000/svg" width="45.364" height="34.604" viewBox="0 0 45.364 34.604">
  <g id="ico03" transform="translate(-609.86 -173.991)">
    <g id="グループ_34" data-name="グループ 34" transform="translate(-660.686 138.814)">
      <g id="グループ_28" data-name="グループ 28" transform="translate(1292.829 36.252)">
        <circle id="楕円形_1" data-name="楕円形 1" cx="11.29" cy="11.29" r="11.29" transform="translate(0 0)" fill="#f2f2f2" stroke="#2e2d2c" stroke-linecap="round" stroke-linejoin="round" stroke-width="1"/>
        <path id="パス_6" data-name="パス 6" d="M1336.449,50.343,1341,54.892l6.181-6.181" transform="translate(-1329.708 -43.602)" fill="none" stroke="#2e2d2c" stroke-linecap="round" stroke-linejoin="round" stroke-width="1"/>
        <path id="パス_7" data-name="パス 7" d="M1343.675,61.076a1.4,1.4,0,1,0,1.4-1.4A1.4,1.4,0,0,0,1343.675,61.076Z" transform="translate(-1333.783 -49.786)" fill="#fff" stroke="#2e2d2c" stroke-linecap="round" stroke-linejoin="round" stroke-width="1"/>
        <line id="線_4" data-name="線 4" x1="1.448" transform="translate(18.61 11.289)" fill="#fff" stroke="#2e2d2c" stroke-linecap="round" stroke-linejoin="round" stroke-width="1"/>
        <line id="線_5" data-name="線 5" y1="1.448" transform="translate(11.291 2.523)" fill="#fff" stroke="#2e2d2c" stroke-linecap="round" stroke-linejoin="round" stroke-width="1"/>
        <line id="線_6" data-name="線 6" x2="1.448" transform="translate(2.523 11.291)" fill="#fff" stroke="#2e2d2c" stroke-linecap="round" stroke-linejoin="round" stroke-width="1"/>
        <line id="線_7" data-name="線 7" y2="1.448" transform="translate(11.29 18.609)" fill="#fff" stroke="#2e2d2c" stroke-linecap="round" stroke-linejoin="round" stroke-width="1"/>
      </g>
      <g id="グループ_33" data-name="グループ 33" transform="translate(1271.046 35.677)">
        <g id="グループ_30" data-name="グループ 30">
          <g id="グループ_29" data-name="グループ 29" transform="translate(14.91)">
            <path id="パス_8" data-name="パス 8" d="M1310.874,38.5a2.821,2.821,0,1,1-2.821-2.82A2.821,2.821,0,0,1,1310.874,38.5Z" transform="translate(-1305.233 -35.677)" fill="#f2f2f2" stroke="#fff" stroke-linecap="round" stroke-linejoin="round" stroke-width="1"/>
          </g>
          <path id="パス_9" data-name="パス 9" d="M1286.643,64.8l2.593-6.833,2.339,3.077a1.613,1.613,0,0,0,1.283.636,1.631,1.631,0,0,0,.339-.035l5.215-1.122a1.679,1.679,0,0,0,1.362-1.675,1.616,1.616,0,0,0-1.95-1.5l-4.3.926-3.233-4.254a3.65,3.65,0,0,0-2.906-1.441h-7.3a1.612,1.612,0,0,0-1.4.819l-3.255,5.753a1.612,1.612,0,1,0,2.806,1.587l2.793-4.935h3.284l-5.118,13.517h-6.534a1.612,1.612,0,1,0,0,3.223h8.249a1.612,1.612,0,0,0,1.507-1.041l1.28-4.969,5.379,4.619,2.291,6.577a1.612,1.612,0,0,0,3.045-1.06l-2.8-8.034a1.615,1.615,0,0,0-.472-.693Z" transform="translate(-1271.046 -45.209)" fill="#f2f2f2" stroke="#fff" stroke-linecap="round" stroke-linejoin="round" stroke-width="1"/>
        </g>
        <g id="グループ_32" data-name="グループ 32">
          <g id="グループ_31" data-name="グループ 31" transform="translate(14.91)">
            <path id="パス_10" data-name="パス 10" d="M1310.874,38.5a2.821,2.821,0,1,1-2.821-2.82A2.821,2.821,0,0,1,1310.874,38.5Z" transform="translate(-1305.233 -35.677)" fill="none" stroke="#2e2d2c" stroke-linecap="round" stroke-linejoin="round" stroke-width="1"/>
          </g>
          <path id="パス_11" data-name="パス 11" d="M1286.856,64.238l2.38-6.271,2.339,3.077a1.613,1.613,0,0,0,1.283.636,1.631,1.631,0,0,0,.339-.035l5.215-1.122a1.679,1.679,0,0,0,1.362-1.675,1.616,1.616,0,0,0-1.95-1.5l-4.3.926-3.233-4.254a3.65,3.65,0,0,0-2.906-1.441h-7.3a1.612,1.612,0,0,0-1.4.819l-3.255,5.753a1.612,1.612,0,1,0,2.806,1.587l2.793-4.935h3.284l-5.118,13.517h-6.534a1.612,1.612,0,1,0,0,3.223h8.249a1.612,1.612,0,0,0,1.507-1.041l1.757-4.559,4.9,4.209,2.291,6.577a1.612,1.612,0,0,0,3.045-1.06l-2.8-8.034a1.615,1.615,0,0,0-.472-.693Z" transform="translate(-1271.046 -45.209)" fill="none" stroke="#2e2d2c" stroke-linecap="round" stroke-linejoin="round" stroke-width="1"/>
        </g>
      </g>
    </g>
  </g>
</svg>
