<svg xmlns="http://www.w3.org/2000/svg" width="41.131" height="35.034" viewBox="0 0 41.131 35.034"><g transform="translate(-609.384 -174.043)"><g transform="translate(608.884 173.343)"><path d="M41.132,11.733a.5.5,0,0,1-.394-.192A24.952,24.952,0,0,0,21.065,1.7,24.95,24.95,0,0,0,1.394,11.541a.5.5,0,0,1-.788-.616A25.943,25.943,0,0,1,21.065.7,25.945,25.945,0,0,1,41.525,10.925a.5.5,0,0,1-.394.808Z" transform="translate(0 0)" fill="#262626"/><path d="M31.482,24.749a.5.5,0,0,1-.461-.307,10.829,10.829,0,0,0-19.95-.2.5.5,0,1,1-.915-.4A11.89,11.89,0,0,1,21,16.726a11.725,11.725,0,0,1,6.64,2.051,11.973,11.973,0,0,1,4.3,5.279.5.5,0,0,1-.461.693ZM5.55,17.932l.63-.977A17.7,17.7,0,0,1,21.047,8.7a13.447,13.447,0,0,1,3.515.415c1.222.346,1.874.874,1.939,1.569.1,1.079-1.271,2.1-4.315,3.222A105.088,105.088,0,0,1,6.692,17.718ZM21.047,9.7a16.639,16.639,0,0,0-13.34,6.806A98.389,98.389,0,0,0,21.84,12.968c3.7-1.36,3.668-2.158,3.665-2.191-.012-.126-.281-.435-1.216-.7A12.439,12.439,0,0,0,21.047,9.7Z" transform="translate(0.018 0.026)" fill="#262626"/><path d="M20.882,35.656a5.582,5.582,0,0,1,0-11.156,5.582,5.582,0,0,1,0,11.156Zm0-10.156a4.583,4.583,0,0,0,0,9.156,4.582,4.582,0,0,0,0-9.156Z" transform="translate(0.049 0.078)" fill="#262626"/></g></g></svg>