<svg xmlns="http://www.w3.org/2000/svg" width="42.615" height="35.787" viewBox="0 0 42.615 35.787">
  <g id="ico07" transform="translate(-608.861 -174.029)">
    <g id="img-amenities-07" transform="translate(608.861 174.029)">
      <path id="パス_18" data-name="パス 18" d="M40.19,30.081H2.424A1.924,1.924,0,0,1,.5,28.156V2.424A1.924,1.924,0,0,1,2.424.5H40.19a1.925,1.925,0,0,1,1.925,1.924V28.157a1.925,1.925,0,0,1-1.925,1.924Z" transform="translate(0)" fill="none" stroke="#231916" stroke-linecap="round" stroke-width="1" fill-rule="evenodd"/>
      <path id="パス_19" data-name="パス 19" d="M36.107,25.683H6.359a1.926,1.926,0,0,1-1.926-1.924V6.66A1.926,1.926,0,0,1,6.359,4.734H36.107A1.926,1.926,0,0,1,38.033,6.66v17.1a1.926,1.926,0,0,1-1.926,1.925ZM18.928,30l-1.019,5.118M23.538,30l1.019,5.118" transform="translate(0.075 0.081)" fill="none" stroke="#231916" stroke-linecap="round" stroke-width="1" fill-rule="evenodd"/>
      <g id="グループ_35" data-name="グループ 35" transform="translate(13.656 35.199)">
        <path id="パス_20" data-name="パス 20" d="M.409.5h15.3" transform="translate(-0.409 -0.5)" fill="none" stroke="#231916" stroke-linecap="round" stroke-width="1" fill-rule="evenodd"/>
      </g>
    </g>
  </g>
</svg>
