<svg xmlns="http://www.w3.org/2000/svg" width="40.496" height="27.067" viewBox="0 0 40.496 27.067">
  <g id="ico02" transform="translate(-609.861 -177.992)">
    <path id="パス_12" data-name="パス 12" d="M37.934,27.067H3.564A2.554,2.554,0,0,1,1,24.524V3.544A2.553,2.553,0,0,1,3.563,1h34.37A2.552,2.552,0,0,1,40.5,3.544v20.98A2.553,2.553,0,0,1,37.934,27.067Z" transform="translate(609.361 177.492)" fill="none" stroke="#231916" stroke-linecap="round" stroke-width="1" fill-rule="evenodd"/>
    <path id="パス_13" data-name="パス 13" d="M37.387,6,22.725,20.466a1.9,1.9,0,0,1-2.654,0L5.79,6.376m8.689,9.1L5,24.958m22.908-9.479,9.479,9.479" transform="translate(608.521 176.441)" fill="none" stroke="#231916" stroke-linecap="round" stroke-width="1" fill-rule="evenodd"/>
  </g>
</svg>
