<svg xmlns="http://www.w3.org/2000/svg" width="25.836" height="39.215" viewBox="0 0 25.836 39.215">
  <g id="ico05" transform="translate(-619.361 -174.426)">
    <path id="img-amenities-05" d="M6.792,36.737,2.463,39.01a.927.927,0,0,1-1.408-.828L1,33.441a1.277,1.277,0,0,1,.177-.651l15.8-27.055a.534.534,0,0,1,.7-.243L22.947,8.48a.523.523,0,0,1,.141.725L7.3,36.246a1.3,1.3,0,0,1-.508.49ZM18.738,3.028l.876-1.441a1.111,1.111,0,0,1,1.436-.477l4.324,2.357a.988.988,0,0,1,.284,1.414l-.875,1.441M1.443,33.373l3.548,1.774" transform="translate(618.861 173.992)" fill="none" stroke="#231916" stroke-linecap="round" stroke-linejoin="round" stroke-width="1" fill-rule="evenodd"/>
  </g>
</svg>
