<svg xmlns="http://www.w3.org/2000/svg" width="44.782" height="34.589" viewBox="0 0 44.782 34.589">
  <g id="ico06" transform="translate(-607.303 -173.996)">
    <g id="img-amenities-06" transform="translate(607.341 174.062)">
      <path id="パス_14" data-name="パス 14" d="M11.167,25.931,2.7,15.009a.75.75,0,0,1,.383-1.128L34.494.623A1.318,1.318,0,0,1,36.24,1.2l5.114,11.4a1.685,1.685,0,0,1-1.012,2.177L12.851,26.3a1.424,1.424,0,0,1-1.685-.367ZM4.4,17.375l-3.377,1.5A.838.838,0,0,0,.549,19.92l2.934,7.691a.5.5,0,0,0,.716.229l5.778-3.161m17.111-2.994,6.347,7.642" transform="translate(0)" fill="none" stroke="#262626" stroke-linecap="round" stroke-linejoin="round" stroke-width="1" fill-rule="evenodd"/>
      <path id="パス_15" data-name="パス 15" d="M30.755,20.953a2.572,2.572,0,1,1-4.388,1.818M37.632,30.79a2.347,2.347,0,1,1-2.347-2.347,2.347,2.347,0,0,1,2.347,2.347" transform="translate(-1.85 -1.463)" fill="#262626" fill-rule="evenodd"/>
      <path id="パス_16" data-name="パス 16" d="M35.972,31.548h7.454" transform="translate(-2.537 -2.22)" fill="none" stroke="#262626" stroke-linecap="round" stroke-linejoin="round" stroke-width="1" fill-rule="evenodd"/>
      <path id="パス_17" data-name="パス 17" d="M44,35.847h3.355V26H44Z" transform="translate(-3.111 -1.824)" fill="none" stroke="#262626" stroke-width="1" fill-rule="evenodd"/>
    </g>
  </g>
</svg>
